# xmcd CD database file
#
# Track frame offsets:
#	150
#	34645
#	63595
#	104395
#	137845
#	167095
#	193645
#	218095
#	240220
#	252970
#
# Disc length: 3990 seconds
#
# Revision: 0
# Processed by: cddbd v1.5.2PL0 Copyright (c) Steve Scherf et al.
# Submitted via: CDex 1.70beta2
#
DISCID=860f940a
DTITLE=Eric Clapton Live 90 - High Geared UK 92
DYEAR=1992
DGENRE=Blues
TTITLE0=Anything For Love
TTITLE1=Pretending
TTITLE2=I Shot The Sheriff
TTITLE3=Running On Faith
TTITLE4=My Father's Eye
TTITLE5=She's Waiting
TTITLE6=Circus Left Town
TTITLE7=Tears In Heaven
TTITLE8=Signe
TTITLE9=Before You Accuse Me
EXTD=YEAR: 1992
EXTT0=
EXTT1=
EXTT2=
EXTT3=
EXTT4=
EXTT5=
EXTT6=
EXTT7=
EXTT8=
EXTT9=
PLAYORDER=
